<?xml version="1.0" standalone="no"?>
<!DOCTYPE svg PUBLIC "-//W3C//DTD SVG 20010904//EN"
 "http://www.w3.org/TR/2001/REC-SVG-20010904/DTD/svg10.dtd">
<svg version="1.0" xmlns="http://www.w3.org/2000/svg"
 width="1024.000000pt" height="1024.000000pt" viewBox="0 0 1024.000000 1024.000000"
 preserveAspectRatio="xMidYMid meet">

<g transform="translate(0.000000,1024.000000) scale(0.100000,-0.100000)"
fill="#000000" stroke="none">
<path d="M3270 7978 c-224 -29 -381 -173 -467 -428 -17 -52 -18 -113 -18
-1170 0 -1035 1 -1120 18 -1180 46 -172 155 -305 308 -378 150 -72 38 -67
1674 -67 1599 1 1537 -1 1661 55 104 47 190 143 262 292 43 89 50 131 58 326
l7 162 99 0 98 0 0 -39 c0 -23 8 -48 19 -62 18 -23 25 -24 126 -22 121 3 174
14 200 43 17 19 26 20 155 14 99 -5 142 -4 159 5 44 24 47 56 41 355 l-5 279
-28 21 c-26 19 -45 21 -188 25 -128 2 -162 6 -166 17 -21 55 -221 82 -280 38
-20 -15 -29 -31 -31 -57 l-3 -37 -93 0 -93 0 -6 182 c-4 99 -7 239 -7 310 l0
128 94 0 93 0 7 -39 c3 -21 14 -49 25 -62 18 -23 27 -24 145 -27 l126 -4 6 31
7 31 173 0 c168 0 174 1 201 24 l28 24 -3 303 -3 304 -25 23 c-24 21 -34 22
-174 22 -81 0 -155 3 -164 6 -9 3 -16 15 -16 25 0 35 -55 52 -171 53 -123 1
-143 -9 -154 -76 -6 -35 -10 -39 -29 -34 -11 3 -54 6 -93 6 l-73 0 0 63 c-1
187 -191 421 -408 501 -57 21 -58 21 -1547 21 -820 0 -1515 -3 -1545 -7z
m3059 -171 c103 -40 209 -154 253 -271 27 -69 27 -98 32 -1086 6 -1137 1
-1216 -88 -1367 -70 -118 -146 -162 -305 -174 -141 -11 -2718 -10 -2850 0 -89
8 -113 14 -176 45 -104 51 -168 112 -209 200 -19 39 -37 91 -41 116 -11 69
-15 1871 -5 2075 9 190 14 213 70 303 49 80 170 157 268 171 25 3 712 6 1526
6 1388 0 1484 -1 1525 -18z m851 -504 c48 -23 272 -50 310 -38 12 4 22 1 25
-7 2 -7 6 -95 7 -194 l3 -181 -180 -6 c-99 -4 -192 -9 -206 -13 l-27 -6 -7 80
c-6 74 -4 143 11 325 4 37 9 66 13 64 3 -1 26 -13 51 -24z m-221 -260 l1 -92
-95 1 -95 2 0 70 c0 39 3 101 6 138 l7 67 81 3 81 3 7 -50 c3 -27 6 -91 7
-142z m390 -974 c85 -5 156 -11 157 -12 3 -3 21 -371 18 -375 -4 -6 -398 -23
-412 -17 -13 5 -14 30 -8 168 3 89 9 188 12 219 l6 57 37 -15 c23 -10 93 -19
190 -25z m-391 -180 l3 -136 -32 -7 c-17 -3 -60 -6 -95 -6 l-64 0 0 128 c0 70
4 132 8 139 4 7 37 14 72 16 116 6 105 21 108 -134z"/>
<path d="M3379 7686 c-106 -28 -208 -119 -262 -234 l-32 -67 -8 -245 c-4 -135
-6 -578 -4 -985 3 -724 3 -741 24 -796 29 -79 63 -128 123 -182 61 -55 136
-94 205 -105 78 -13 2722 -6 2772 7 94 25 181 110 245 239 30 61 31 67 39 255
5 106 8 210 8 232 0 22 -1 378 -2 790 -2 683 -4 754 -19 793 -59 147 -143 243
-246 282 -81 31 -105 33 -248 25 -115 -6 -129 -9 -151 -31 -23 -24 -29 -49
-15 -71 5 -8 57 -16 145 -23 178 -12 248 -43 317 -137 65 -89 62 -56 66 -948
2 -445 0 -871 -5 -945 -9 -148 -24 -194 -85 -258 -64 -68 40 -64 -1453 -64
l-1353 0 -55 26 c-66 33 -118 91 -142 160 -17 48 -18 115 -18 986 0 894 1 938
19 993 36 111 122 162 297 178 123 10 146 18 155 53 10 41 0 60 -36 73 -46 15
-222 15 -281 -1z"/>
<path d="M3978 7385 c-15 -8 -30 -24 -33 -36 -4 -11 -5 -116 -3 -232 3 -209 3
-213 -20 -245 -63 -88 -196 -82 -252 10 -18 30 -20 51 -20 254 0 240 0 238
-57 250 -38 8 -91 -18 -98 -49 -4 -13 -5 -122 -3 -242 3 -204 5 -223 25 -265
29 -58 92 -124 146 -151 98 -50 236 -32 329 44 43 35 58 56 80 113 27 68 27
73 28 296 l0 227 -26 20 c-31 24 -58 26 -96 6z"/>
<path d="M4802 7390 c-12 -5 -27 -21 -32 -35 -6 -15 -10 -118 -10 -231 0 -221
-3 -235 -55 -284 -23 -21 -36 -25 -90 -25 -54 0 -67 4 -90 25 -48 45 -50 54
-55 293 -5 212 -6 230 -24 243 -31 22 -99 18 -122 -7 -18 -19 -19 -39 -19
-253 0 -228 0 -232 26 -286 29 -62 91 -130 141 -156 48 -25 153 -30 221 -10
81 24 135 69 185 156 l42 75 0 237 0 237 -30 16 c-33 17 -54 18 -88 5z"/>
<path d="M5156 7379 l-26 -20 1 -212 c1 -117 4 -266 8 -331 6 -114 7 -120 33
-139 30 -22 62 -19 98 11 l23 19 -2 329 c-2 320 -2 329 -22 347 -28 23 -80 22
-113 -4z"/>
<path d="M5533 7369 c-10 -10 -13 -95 -13 -356 0 -324 1 -343 19 -352 12 -7
69 -7 164 -2 122 7 154 13 199 34 87 40 137 86 165 153 40 96 46 125 40 204
-7 103 -39 183 -96 240 -78 78 -101 85 -296 88 -128 3 -173 0 -182 -9z m323
-148 c79 -48 118 -153 96 -258 -21 -103 -63 -136 -187 -152 -44 -5 -83 -7 -86
-3 -4 4 -4 103 -1 220 l5 212 71 0 c52 0 79 -5 102 -19z"/>
<path d="M3510 6352 c-39 -39 -39 -75 -1 -113 l29 -29 312 0 312 0 29 29 c35
35 37 71 7 105 l-23 24 -317 7 -318 7 -30 -30z"/>
<path d="M4540 6373 c-36 -2 -75 -5 -87 -8 -31 -7 -56 -57 -44 -87 21 -55 21
-55 365 -61 181 -3 329 -2 342 3 31 12 66 69 58 95 -3 11 -15 29 -25 40 -19
19 -33 20 -282 21 -144 0 -291 -1 -327 -3z"/>
<path d="M5414 6370 c-28 -11 -54 -48 -54 -77 0 -12 10 -34 23 -48 l22 -27
325 1 325 1 28 32 c35 41 34 62 -2 99 l-29 29 -309 -1 c-169 0 -318 -4 -329
-9z"/>
<path d="M3507 5979 c-42 -37 -45 -78 -9 -117 l30 -32 229 1 c125 1 274 4 330
8 89 5 105 9 127 30 32 30 35 80 6 106 -18 16 -50 18 -353 23 l-333 5 -27 -24z"/>
<path d="M4443 5979 c-25 -29 -30 -45 -20 -81 15 -57 39 -61 394 -62 l322 -1
30 29 c37 36 42 83 11 111 -18 16 -51 18 -367 23 l-348 4 -22 -23z"/>
<path d="M5391 5974 c-28 -36 -27 -76 4 -106 23 -24 32 -25 176 -31 84 -4 225
-7 315 -7 l162 0 31 35 c33 38 37 55 21 86 -25 46 -50 49 -379 49 l-310 0 -20
-26z"/>
<path d="M3501 5599 c-27 -43 -26 -79 0 -113 l20 -26 344 0 344 0 20 26 c12
15 21 37 21 50 0 33 -20 73 -39 78 -9 3 -168 8 -353 11 l-337 7 -20 -33z"/>
<path d="M5672 5621 l-254 -6 -24 -28 c-29 -34 -31 -76 -5 -108 19 -24 20 -24
278 -27 326 -4 377 1 415 38 36 36 37 78 3 110 -30 28 -58 29 -413 21z"/>
<path d="M4444 5587 c-31 -37 -30 -68 3 -108 l27 -32 335 7 c184 4 342 11 352
17 31 16 42 46 29 84 -20 61 -11 60 -383 60 l-339 0 -24 -28z"/>
<path d="M7301 7154 c-64 -53 -20 -144 69 -144 47 0 80 35 80 85 0 41 -47 85
-90 85 -16 0 -42 -11 -59 -26z"/>
<path d="M7317 5969 c-26 -15 -48 -65 -41 -93 25 -101 174 -84 174 20 0 65
-75 107 -133 73z"/>
<path d="M7196 4355 c-49 -17 -87 -53 -121 -117 -23 -42 -27 -59 -23 -108 5
-69 36 -117 106 -161 39 -24 56 -29 111 -29 80 0 134 23 179 75 42 47 52 74
52 136 0 151 -157 257 -304 204z m168 -104 c53 -49 70 -120 40 -166 -38 -58
-106 -77 -186 -53 -58 17 -75 53 -69 150 2 39 55 96 94 101 52 7 90 -3 121
-32z"/>
<path d="M7205 4208 c2 -18 6 -57 9 -86 3 -29 8 -56 11 -61 10 -17 45 1 45 23
0 39 21 99 31 89 6 -6 6 -20 -1 -37 -18 -49 -13 -66 20 -66 l30 0 0 75 0 74
-37 10 c-21 6 -55 11 -75 11 -36 0 -37 -1 -33 -32z"/>
<path d="M4455 4102 c-16 -2 -36 -8 -42 -14 -16 -13 -18 -845 -4 -974 24 -209
151 -366 345 -427 60 -19 94 -22 221 -22 127 0 161 3 220 22 145 46 237 131
327 303 l42 80 4 503 c4 442 3 504 -11 515 -11 9 -58 13 -158 14 -126 0 -144
-2 -156 -18 -10 -14 -13 -111 -13 -460 0 -288 -4 -461 -11 -495 -22 -103 -116
-169 -238 -169 -112 0 -185 42 -225 130 -21 44 -21 56 -18 510 4 442 3 466
-15 482 -14 13 -42 17 -128 20 -61 2 -123 1 -140 0z"/>
<path d="M5900 4097 l-25 -13 -3 -691 c-2 -619 0 -693 14 -707 32 -33 588 -14
709 24 134 42 207 84 267 152 84 97 156 213 178 289 84 282 8 582 -195 767
-67 62 -234 147 -315 162 -30 6 -116 13 -190 15 -74 3 -198 7 -275 10 -100 3
-147 1 -165 -8z m621 -336 c140 -53 219 -192 219 -388 0 -69 -21 -167 -47
-216 -48 -94 -165 -167 -277 -173 -34 -2 -98 -5 -143 -8 l-82 -4 2 410 2 411
135 -6 c103 -4 148 -10 191 -26z"/>
<path d="M2956 4084 c-14 -14 -16 -71 -16 -483 0 -290 4 -490 11 -527 35 -194
187 -352 385 -401 142 -34 386 -17 489 35 54 27 140 101 165 142 14 21 29 40
33 40 4 0 27 39 50 88 l42 87 3 499 c3 457 1 500 -14 517 -15 17 -33 19 -148
19 -72 0 -138 -5 -146 -10 -13 -8 -16 -77 -20 -482 -6 -527 -4 -510 -78 -581
-93 -91 -289 -91 -374 -1 -63 68 -63 63 -66 581 l-3 472 -37 11 c-20 5 -87 10
-149 10 -88 0 -115 -3 -127 -16z"/>
</g>
</svg>
