<svg width="13" height="7" viewBox="0 0 13 7" fill="none" xmlns="http://www.w3.org/2000/svg">
<path d="M2.24986 1.95C2.24986 1.086 2.38186 0.654 2.64586 0.654C2.90986 0.654 3.04186 1.143 3.04186 2.121L2.92486 3.444C2.92486 4.572 3.07486 5.442 3.37486 6.054V6.09C3.37486 6.21 3.29386 6.285 3.13186 6.315H3.09586C2.87386 6.303 2.67886 5.88 2.51086 5.046H2.47486C2.16286 5.982 1.76386 6.45 1.27786 6.45C0.791856 6.45 0.479855 6.057 0.341855 5.271L0.314855 4.74V4.569L0.449855 2.517V2.121C0.449855 2.001 0.518855 1.908 0.656855 1.842H0.737856C0.905856 1.842 0.989856 1.953 0.989856 2.175V2.229L0.845856 4.632V4.965C0.845856 5.445 0.959856 5.763 1.18786 5.919H1.34986C1.65586 5.733 1.94986 5.103 2.23186 4.029L2.36686 3.417L2.24986 1.95ZM5.91489 1.95C5.91489 1.086 6.04689 0.654 6.31089 0.654C6.57489 0.654 6.70689 1.143 6.70689 2.121L6.58989 3.444C6.58989 4.572 6.73989 5.442 7.03989 6.054V6.09C7.03989 6.21 6.95889 6.285 6.79689 6.315H6.76089C6.53889 6.303 6.34389 5.88 6.17589 5.046H6.13989C5.82789 5.982 5.42889 6.45 4.94289 6.45C4.45689 6.45 4.14489 6.057 4.00689 5.271L3.97989 4.74V4.569L4.11489 2.517V2.121C4.11489 2.001 4.18389 1.908 4.32189 1.842H4.40289C4.57089 1.842 4.65489 1.953 4.65489 2.175V2.229L4.51089 4.632V4.965C4.51089 5.445 4.62489 5.763 4.85289 5.919H5.01489C5.32089 5.733 5.61489 5.103 5.89689 4.029L6.03189 3.417L5.91489 1.95ZM7.95093 1.014C8.09493 1.014 8.18793 1.089 8.22993 1.239L8.17593 1.77V1.941C8.32593 3.183 8.41893 4.149 8.45493 4.839C8.52093 5.481 8.58993 5.802 8.66193 5.802C8.66193 5.928 8.55693 6.009 8.34693 6.045C8.04693 6.045 7.89693 5.439 7.89693 4.227L7.64493 1.887V1.806C7.64493 1.278 7.74693 1.014 7.95093 1.014ZM9.98275 0.744C10.8288 0.744 11.6448 1.194 12.4308 2.094C12.6708 2.568 12.7908 3.027 12.7908 3.471C12.7908 4.515 12.2598 5.283 11.1978 5.775C10.8558 5.925 10.4868 6 10.0908 6H9.86575C9.64375 5.994 9.53275 5.901 9.53275 5.721H9.50575C9.50575 5.559 9.60775 5.475 9.81175 5.469H10.0188V5.415H10.0368C9.66475 3.837 9.47875 2.664 9.47875 1.896H9.45175L9.22675 2.04C9.07075 2.04 8.97775 1.935 8.94775 1.725C8.94775 1.395 9.13375 1.107 9.50575 0.861C9.65575 0.783 9.81475 0.744 9.98275 0.744ZM10.0908 1.275H10.0188V1.707C10.0188 2.691 10.2048 3.927 10.5768 5.415H10.6038C11.7138 5.115 12.2688 4.467 12.2688 3.471C12.2688 2.403 11.6478 1.689 10.4058 1.329C10.3338 1.293 10.2288 1.275 10.0908 1.275Z" fill="#6C707E"/>
</svg>

